# xmcd
#
# Track frame offsets: 
#        150
#        16648
#        31773
#        45339
#        57385
#        71609
#        85920
#        95211
#        118935
#        130199
#        144644
#
# Disc length: 2107 seconds
#
# Revision: 0
# Processed by: cddbd v1.5.2PL0 Copyright (c) Steve Scherf et al.
# Submitted via: ExactAudioCopy v0.99pb4
#
DISCID=9208390b
DTITLE=Nate Gibson and The Gashouse Gang - Nate Gibson and The Gashous
DTITLE=e Gang
DYEAR=2002
DGENRE=Country
TTITLE0=All I Wanted Was a Dance
TTITLE1=An Immaculate Confection (with Rex Trailer)
TTITLE2=Whispering Pines
TTITLE3=The Snow Globe Song
TTITLE4=The King of the Yodelers (with Kenny Roberts)
TTITLE5=Treatin' Me Like a Ping-Pong Ball
TTITLE6=She Won't Wear a Bra ('Cause She Don't Need It)
TTITLE7=I Can't Sell My Broken Heart On eBay
TTITLE8=The Remote to the T.V. (with Rex Trailer and Kenny Roberts)
TTITLE9=Don't 'Nathan David' Me
TTITLE10=I Don't Need Liquor For a Good Time (I Need Liquor To Survive
TTITLE10=)
EXTD=
EXTT0=
EXTT1=
EXTT2=
EXTT3=
EXTT4=
EXTT5=
EXTT6=
EXTT7=
EXTT8=
EXTT9=
EXTT10=
PLAYORDER=
